<?xml version="1.0" encoding="UTF-8"?>
<svg id="Layer_2" data-name="Layer 2" xmlns="http://www.w3.org/2000/svg" viewBox="0 0 968.14 421.04">
  <defs>
    <style>
      .cls-1 {
        fill: #fff;
      }
    </style>
  </defs>
  <g id="Layer_1-2" data-name="Layer 1">
    <g>
      <g>
        <path class="cls-1" d="M379.5,237.42V3.38h75.39c20.68,0,39.27,4.69,55.78,14.06,16.5,9.38,29.39,22.61,38.66,39.7,9.27,17.09,13.96,36.25,14.06,57.47v10.77c0,21.43-4.53,40.64-13.58,57.63-9.06,16.99-21.81,30.27-38.26,39.86-16.45,9.59-34.8,14.44-55.05,14.55h-77Zm56.42-190.48V194.02h19.61c16.18,0,28.61-5.76,37.29-17.28,8.68-11.52,13.02-28.64,13.02-51.36v-10.13c0-22.61-4.34-39.65-13.02-51.12-8.68-11.47-21.33-17.2-37.94-17.2h-18.97Z"/>
        <path class="cls-1" d="M737.47,138.08h-88.73v55.94h104.8v43.4h-161.22V3.38h161.55V46.94h-105.12v49.35h88.73v41.79Z"/>
        <path class="cls-1" d="M968.14,208.48c-8.68,9.64-21.38,17.42-38.1,23.31-16.72,5.89-35.04,8.84-54.97,8.84-30.65,0-55.13-9.38-73.46-28.13-18.32-18.75-28.13-44.85-29.42-78.28l-.16-20.25c0-23.04,4.07-43.16,12.22-60.36,8.14-17.2,19.8-30.43,34.96-39.7,15.16-9.27,32.71-13.9,52.64-13.9,29.15,0,51.78,6.67,67.91,20.01,16.13,13.34,25.53,33.25,28.21,59.72h-54.33c-1.93-13.07-6.11-22.4-12.54-27.97-6.43-5.57-15.54-8.36-27.33-8.36-14.14,0-25.08,6-32.79,18-7.72,12-11.63,29.15-11.73,51.44v14.14c0,23.36,3.99,40.91,11.98,52.64,7.98,11.73,20.55,17.6,37.69,17.6,14.68,0,25.61-3.27,32.79-9.81v-36.33h-39.22v-38.74h95.64v96.12Z"/>
      </g>
      <g>
        <path class="cls-1" d="M427.66,266.86l33.95,105.82,33.84-105.82h48.26v152.1h-36.77v-35.52l3.55-72.71-36.77,108.22h-24.23l-36.88-108.33,3.55,72.81v35.52h-36.67v-152.1h48.16Z"/>
        <path class="cls-1" d="M695.81,346.04c0,14.83-2.75,27.96-8.25,39.38-5.5,11.42-13.32,20.21-23.45,26.38-10.13,6.16-21.68,9.24-34.63,9.24s-24.44-2.98-34.47-8.93c-10.03-5.95-17.85-14.47-23.45-25.54-5.61-11.07-8.55-23.78-8.83-38.13v-8.57c0-14.9,2.73-28.05,8.2-39.43,5.47-11.39,13.3-20.18,23.5-26.38,10.2-6.2,21.81-9.3,34.84-9.3s24.37,3.06,34.47,9.19c10.1,6.13,17.95,14.85,23.56,26.17,5.6,11.32,8.44,24.29,8.51,38.91v7Zm-37.29-6.37c0-15.11-2.53-26.59-7.57-34.42-5.05-7.83-12.27-11.75-21.68-11.75-18.38,0-28.1,13.79-29.14,41.37l-.1,11.18c0,14.9,2.47,26.36,7.42,34.37,4.94,8.01,12.29,12.01,22.04,12.01s16.4-3.93,21.41-11.8c5.01-7.87,7.56-19.18,7.63-33.95v-7Z"/>
        <path class="cls-1" d="M714.72,418.95v-152.1h48.99c13.44,0,25.52,3.05,36.25,9.14,10.72,6.09,19.1,14.69,25.12,25.8,6.02,11.11,9.07,23.56,9.14,37.34v7c0,13.93-2.94,26.41-8.83,37.45-5.89,11.04-14.17,19.67-24.86,25.91-10.69,6.23-22.62,9.39-35.78,9.45h-50.04Zm36.67-123.79v95.58h12.74c10.52,0,18.59-3.74,24.24-11.23,5.64-7.48,8.46-18.61,8.46-33.38v-6.58c0-14.69-2.82-25.77-8.46-33.22-5.64-7.45-13.86-11.18-24.65-11.18h-12.33Z"/>
        <path class="cls-1" d="M931.47,378.52c0-5.36-1.9-9.54-5.69-12.53-3.8-2.99-10.46-6.09-20-9.3-9.54-3.2-17.34-6.3-23.4-9.3-19.71-9.68-29.56-22.98-29.56-39.9,0-8.43,2.46-15.86,7.36-22.3,4.91-6.44,11.86-11.45,20.84-15.04,8.98-3.59,19.08-5.38,30.29-5.38s20.74,1.95,29.41,5.85c8.67,3.9,15.41,9.45,20.21,16.66,4.8,7.21,7.21,15.44,7.21,24.71h-36.56c0-6.2-1.9-11-5.69-14.42-3.8-3.41-8.93-5.12-15.41-5.12s-11.72,1.45-15.51,4.34c-3.8,2.89-5.69,6.56-5.69,11.02,0,3.9,2.09,7.44,6.27,10.6,4.18,3.17,11.53,6.44,22.04,9.82,10.51,3.38,19.15,7.02,25.91,10.92,16.43,9.47,24.65,22.53,24.65,39.17,0,13.3-5.01,23.75-15.04,31.34-10.03,7.59-23.78,11.39-41.26,11.39-12.33,0-23.49-2.21-33.48-6.63-9.99-4.42-17.51-10.48-22.56-18.18-5.05-7.69-7.57-16.56-7.57-26.59h36.77c0,8.15,2.11,14.15,6.32,18.02,4.21,3.87,11.06,5.8,20.53,5.8,6.06,0,10.85-1.31,14.36-3.92,3.52-2.61,5.27-6.28,5.27-11.02Z"/>
      </g>
    </g>
    <g>
      <path class="cls-1" d="M115.73,277.18c0-18.87-15.29-34.16-34.16-34.16s-34.16,15.29-34.16,34.16,15.29,34.16,34.16,34.16,34.16-15.29,34.16-34.16Zm-54.93-.19c0-11.47,9.3-20.77,20.77-20.77s20.77,9.3,20.77,20.77-9.3,20.77-20.77,20.77-20.77-9.3-20.77-20.77Z"/>
      <path class="cls-1" d="M225.02,243.02c-18.86,0-34.16,15.29-34.16,34.16s15.29,34.16,34.16,34.16,34.16-15.29,34.16-34.16-15.29-34.16-34.16-34.16Zm0,54.74c-11.47,0-20.77-9.3-20.77-20.77s9.3-20.77,20.77-20.77,20.77,9.3,20.77,20.77-9.3,20.77-20.77,20.77Z"/>
      <path class="cls-1" d="M299.53,211.67s0,0,0,0c0,0,0-.02,0-.02-2.61-9.42-5.9-18.53-9.82-26.73-16.4-38.76-43.83-83.92-71.53-115.33C222.26,229.75,151.58,128.25,169.67,0c-59.22,49.02-91.1,134.42-91.1,164.47-9.62-12.19-17.37-32.1-10.81-55.35C19.61,148.65-6.72,227.18,1.48,283.63c8.87,76.18,73.58,135.33,152.14,135.33,84.62,0,153.19-68.95,153.19-153.57,.28-16.19-2.24-35.53-7.28-53.71Zm-96.3-17.98c12.94-3.65,25.22,4.55,26.37,8.64s-8.17,11.2-21.11,14.85-24.09,4.29-25.76-1.62,7.56-18.22,20.5-21.88Zm-127.61,8.64c1.15-4.09,13.43-12.29,26.37-8.64,12.94,3.66,22.17,15.97,20.5,21.88-1.67,5.91-12.82,5.27-25.76,1.62s-22.26-10.77-21.11-14.85Zm-43.29,74.85c0-.56,.02-1.11,.04-1.66-2.94-7.37-5.22-18.6-5.86-35.57,5.8,4.75,10.29,8.08,13.77,10.4,8.78-13.49,23.99-22.42,41.29-22.42,27.2,0,49.25,22.05,49.25,49.25s-22.05,49.25-49.25,49.25-49.25-22.05-49.25-49.25Zm130.22,125.42c-34.61,3.8-69.85-14.41-83.27-44.65,26.51-1.15,59.58-4.05,77.71-6.04,5.51-.6,11.3-1.37,17.53-2.34l17.33,14.81,11.66-20.15c6.93-1.44,14.38-3.09,22.45-4.98-3.9,38.94-28.8,59.55-63.41,63.34Zm111.73-125.42c0,27.2-22.05,49.25-49.25,49.25s-49.25-22.05-49.25-49.25,22.05-49.25,49.25-49.25c17.3,0,32.51,8.93,41.3,22.43,3.49-2.32,7.98-5.66,13.79-10.42-.64,17.02-2.93,28.26-5.88,35.64,.02,.53,.04,1.06,.04,1.6Z"/>
    </g>
  </g>
</svg>