<?xml version="1.0" encoding="UTF-8"?>
<svg id="Layer_2" data-name="Layer 2" xmlns="http://www.w3.org/2000/svg" viewBox="0 0 960.51 421.04">
  <defs>
    <style>
      .cls-1 {
        fill: #fff;
      }
    </style>
  </defs>
  <g id="Layer_1-2" data-name="Layer 1">
    <g>
      <g>
        <path class="cls-1" d="M371.87,237.42V3.38h75.39c20.68,0,39.27,4.69,55.78,14.06,16.5,9.38,29.39,22.61,38.66,39.7,9.27,17.09,13.96,36.25,14.06,57.47v10.77c0,21.43-4.53,40.64-13.58,57.63-9.06,16.99-21.81,30.27-38.26,39.86-16.45,9.59-34.8,14.44-55.05,14.55h-77Zm56.42-190.48V194.02h19.61c16.18,0,28.61-5.76,37.29-17.28,8.68-11.52,13.02-28.64,13.02-51.36v-10.13c0-22.61-4.34-39.65-13.02-51.12-8.68-11.47-21.33-17.2-37.94-17.2h-18.97Z"/>
        <path class="cls-1" d="M729.85,138.08h-88.73v55.94h104.8v43.4h-161.22V3.38h161.55V46.94h-105.12v49.35h88.73v41.79Z"/>
        <path class="cls-1" d="M960.51,208.48c-8.68,9.64-21.38,17.42-38.1,23.31-16.72,5.89-35.04,8.84-54.97,8.84-30.65,0-55.13-9.38-73.46-28.13-18.32-18.75-28.13-44.85-29.42-78.28l-.16-20.25c0-23.04,4.07-43.16,12.22-60.36,8.14-17.2,19.8-30.43,34.96-39.7,15.16-9.27,32.71-13.9,52.64-13.9,29.15,0,51.78,6.67,67.91,20.01,16.13,13.34,25.53,33.25,28.21,59.72h-54.33c-1.93-13.07-6.11-22.4-12.54-27.97-6.43-5.57-15.54-8.36-27.33-8.36-14.14,0-25.08,6-32.79,18-7.72,12-11.63,29.15-11.73,51.44v14.14c0,23.36,3.99,40.91,11.98,52.64,7.98,11.73,20.55,17.6,37.69,17.6,14.68,0,25.61-3.27,32.79-9.81v-36.33h-39.22v-38.74h95.64v96.12Z"/>
      </g>
      <g>
        <path class="cls-1" d="M420.03,266.86l33.95,105.82,33.84-105.82h48.26v152.1h-36.77v-35.52l3.55-72.71-36.77,108.22h-24.23l-36.88-108.33,3.55,72.81v35.52h-36.67v-152.1h48.16Z"/>
        <path class="cls-1" d="M688.18,346.04c0,14.83-2.75,27.96-8.25,39.38-5.5,11.42-13.32,20.21-23.45,26.38-10.13,6.16-21.68,9.24-34.63,9.24s-24.44-2.98-34.47-8.93c-10.03-5.95-17.85-14.47-23.45-25.54-5.61-11.07-8.55-23.78-8.83-38.13v-8.57c0-14.9,2.73-28.05,8.2-39.43,5.47-11.39,13.3-20.18,23.5-26.38,10.2-6.2,21.81-9.3,34.84-9.3s24.37,3.06,34.47,9.19c10.1,6.13,17.95,14.85,23.56,26.17,5.6,11.32,8.44,24.29,8.51,38.91v7Zm-37.29-6.37c0-15.11-2.53-26.59-7.57-34.42-5.05-7.83-12.27-11.75-21.68-11.75-18.38,0-28.1,13.79-29.14,41.37l-.1,11.18c0,14.9,2.47,26.36,7.42,34.37,4.94,8.01,12.29,12.01,22.04,12.01s16.4-3.93,21.41-11.8c5.01-7.87,7.56-19.18,7.63-33.95v-7Z"/>
        <path class="cls-1" d="M707.09,418.95v-152.1h48.99c13.44,0,25.52,3.05,36.25,9.14,10.72,6.09,19.1,14.69,25.12,25.8,6.02,11.11,9.07,23.56,9.14,37.34v7c0,13.93-2.94,26.41-8.83,37.45-5.89,11.04-14.17,19.67-24.86,25.91-10.69,6.23-22.62,9.39-35.78,9.45h-50.04Zm36.67-123.79v95.58h12.74c10.52,0,18.59-3.74,24.24-11.23,5.64-7.48,8.46-18.61,8.46-33.38v-6.58c0-14.69-2.82-25.77-8.46-33.22-5.64-7.45-13.86-11.18-24.65-11.18h-12.33Z"/>
        <path class="cls-1" d="M923.84,378.52c0-5.36-1.9-9.54-5.69-12.53-3.8-2.99-10.46-6.09-20-9.3-9.54-3.2-17.34-6.3-23.4-9.3-19.71-9.68-29.56-22.98-29.56-39.9,0-8.43,2.46-15.86,7.36-22.3,4.91-6.44,11.86-11.45,20.84-15.04,8.98-3.59,19.08-5.38,30.29-5.38s20.74,1.95,29.41,5.85c8.67,3.9,15.41,9.45,20.21,16.66,4.8,7.21,7.21,15.44,7.21,24.71h-36.56c0-6.2-1.9-11-5.69-14.42-3.8-3.41-8.93-5.12-15.41-5.12s-11.72,1.45-15.51,4.34c-3.8,2.89-5.69,6.56-5.69,11.02,0,3.9,2.09,7.44,6.27,10.6,4.18,3.17,11.53,6.44,22.04,9.82,10.51,3.38,19.15,7.02,25.91,10.92,16.43,9.47,24.65,22.53,24.65,39.17,0,13.3-5.01,23.75-15.04,31.34-10.03,7.59-23.78,11.39-41.26,11.39-12.33,0-23.49-2.21-33.48-6.63-9.99-4.42-17.51-10.48-22.56-18.18-5.05-7.69-7.57-16.56-7.57-26.59h36.77c0,8.15,2.11,14.15,6.32,18.02,4.21,3.87,11.06,5.8,20.53,5.8,6.06,0,10.85-1.31,14.36-3.92,3.52-2.61,5.27-6.28,5.27-11.02Z"/>
      </g>
    </g>
    <g>
      <path class="cls-1" d="M216.73,273.26c-8.64,0-15.65,7-15.65,15.65s7,15.65,15.65,15.65,15.65-7,15.65-15.65-7-15.65-15.65-15.65Z"/>
      <path class="cls-1" d="M216.73,252.34c-20.19,0-36.56,16.37-36.56,36.56s16.37,36.56,36.56,36.56,36.56-16.37,36.56-36.56-16.37-36.56-36.56-36.56Zm0,62.01c-14.17,0-25.65-11.48-25.65-25.65s11.48-25.65,25.65-25.65,25.65,11.48,25.65,25.65-11.48,25.65-25.65,25.65Z"/>
      <path class="cls-1" d="M268.99,184.64c-1.29,18.76-6.37,35.45-8.32,37.55-12.29-40.67-24.06-75.66-76.58-146.59-27.71,128.73-71.63,37.71-8.94-72.86C106.55,48.43,65.39,128.79,62.22,167.88c-5.79-10.13-10.97-21.7-14.02-34.74C15.01,163.94-6.17,236.2,1.61,289.8c8.42,72.34,69.87,128.51,144.47,128.51,80.35,0,145.47-65.48,145.47-145.83,.48-27.5-7.57-64.59-22.57-87.84Zm-75.9,27.95c12.88-4.66,25.64-2.04,28.49,5.85,2.85,7.89-6.56,9.43-19.44,14.08-12.88,4.66-24.37,10.67-27.22,2.78-2.85-7.89,5.28-18.06,18.17-22.71Zm-123.08,6.01c2.85-7.89,15.61-10.5,28.49-5.85,12.88,4.66,21.02,14.83,18.17,22.71-2.85,7.89-14.33,1.88-27.22-2.78-12.88-4.66-22.29-6.2-19.44-14.08Zm-41.95,70.3c0-.53,.02-1.05,.04-1.58-2.79-7-4.96-17.67-5.56-33.78,5.51,4.51,9.77,7.67,13.08,9.88,8.34-12.81,22.78-21.29,39.21-21.29,25.83,0,46.77,20.94,46.77,46.77s-20.94,46.77-46.77,46.77-46.77-20.94-46.77-46.77Zm121.71,113.12c-34.69,0-62.8-12.03-77.62-53.27,26.38,1.74,59.45,2.46,77.62,2.46,5.52,0,11.34-.13,17.62-.41l15.55,16.55,13.74-18.69c7.02-.68,14.57-1.5,22.77-2.49-8.09,38.14-34.99,55.84-69.68,55.84Zm113.74-113.12c0,25.83-20.94,46.77-46.77,46.77s-46.77-20.94-46.77-46.77,20.94-46.77,46.77-46.77c16.43,0,30.87,8.48,39.21,21.3,3.31-2.21,7.58-5.37,13.1-9.89-.61,16.16-2.78,26.84-5.59,33.84,.02,.5,.04,1.01,.04,1.52Z"/>
      <path class="cls-1" d="M111.38,288.9c0-20.19-16.37-36.56-36.56-36.56s-36.56,16.37-36.56,36.56,16.37,36.56,36.56,36.56,36.56-16.37,36.56-36.56Zm-62.21-.2c0-14.17,11.48-25.65,25.65-25.65s25.65,11.48,25.65,25.65-11.48,25.65-25.65,25.65-25.65-11.48-25.65-25.65Z"/>
      <circle class="cls-1" cx="74.82" cy="288.9" r="15.65"/>
    </g>
  </g>
</svg>