<?xml version="1.0" encoding="UTF-8"?>
<svg id="Layer_2" data-name="Layer 2" xmlns="http://www.w3.org/2000/svg" viewBox="0 0 970 693.82">
  <defs>
    <style>
      .cls-1 {
        fill: #fff;
      }
    </style>
  </defs>
  <g id="Layer_1-2" data-name="Layer 1">
    <g>
      <g>
        <path class="cls-1" d="M0,391.23V5.56H124.23c34.08,0,64.72,7.73,91.91,23.18,27.19,15.45,48.43,37.26,63.7,65.43,15.27,28.17,23,59.73,23.18,94.7v17.75c0,35.32-7.46,66.97-22.38,94.96-14.92,27.99-35.94,49.89-63.04,65.69-27.11,15.81-57.35,23.8-90.72,23.97H0ZM92.97,77.35v242.37h32.32c26.66,0,47.15-9.49,61.45-28.47,14.3-18.98,21.46-47.19,21.46-84.63v-16.69c0-37.26-7.15-65.34-21.46-84.23-14.3-18.89-35.14-28.34-62.51-28.34h-31.26Z"/>
        <path class="cls-1" d="M589.89,227.53h-146.21v92.18h172.7v71.52H350.7V5.56h266.21V77.35h-173.23v81.32h146.21v68.87Z"/>
        <path class="cls-1" d="M970,343.55c-14.3,15.89-35.23,28.7-62.78,38.41-27.55,9.71-57.74,14.57-90.59,14.57-50.51,0-90.85-15.45-121.05-46.36-30.2-30.9-46.36-73.9-48.48-129l-.26-33.38c0-37.96,6.71-71.12,20.13-99.46,13.42-28.34,32.62-50.15,57.61-65.43,24.98-15.27,53.9-22.91,86.75-22.91,48.03,0,85.33,10.99,111.91,32.98,26.57,21.99,42.07,54.79,46.49,98.4h-89.53c-3.18-21.54-10.07-36.91-20.66-46.09-10.6-9.18-25.61-13.77-45.03-13.77-23.31,0-41.32,9.89-54.04,29.67-12.72,19.78-19.16,48.03-19.34,84.76v23.31c0,38.5,6.58,67.41,19.73,86.75,13.15,19.34,33.86,29,62.11,29,24.19,0,42.2-5.38,54.04-16.16v-59.86h-64.63v-63.84h157.6v158.4Z"/>
      </g>
      <g>
        <path class="cls-1" d="M79.36,439.74l55.95,174.38,55.77-174.38h79.53v250.63h-60.59v-58.53l5.85-119.81-60.59,178.34h-39.94l-60.77-178.51,5.85,119.98v58.53H0v-250.63H79.36Z"/>
        <path class="cls-1" d="M521.24,570.23c0,24.44-4.53,46.08-13.6,64.9-9.07,18.82-21.95,33.31-38.64,43.47-16.7,10.16-35.72,15.23-57.06,15.23s-40.28-4.91-56.81-14.72c-16.53-9.81-29.41-23.84-38.65-42.09-9.24-18.25-14.09-39.19-14.55-62.83v-14.12c0-24.56,4.5-46.22,13.51-64.98,9.01-18.76,21.92-33.25,38.73-43.47,16.81-10.21,35.95-15.32,57.41-15.32s40.17,5.05,56.81,15.15c16.64,10.1,29.58,24.47,38.82,43.12,9.24,18.65,13.91,40.02,14.03,64.12v11.53Zm-61.46-10.5c0-24.9-4.16-43.81-12.48-56.72-8.32-12.91-20.23-19.36-35.72-19.36-30.3,0-46.3,22.72-48.03,68.17l-.17,18.42c0,24.56,4.07,43.44,12.22,56.63,8.15,13.2,20.25,19.8,36.32,19.8s27.03-6.48,35.29-19.45c8.26-12.97,12.45-31.61,12.57-55.94v-11.53Z"/>
        <path class="cls-1" d="M552.39,690.38v-250.63h80.73c22.15,0,42.06,5.02,59.73,15.06,17.67,10.04,31.47,24.21,41.4,42.52,9.92,18.31,14.95,38.82,15.06,61.54v11.53c0,22.96-4.85,43.52-14.55,61.71-9.7,18.19-23.35,32.42-40.97,42.69-17.62,10.27-37.27,15.47-58.96,15.58h-82.45Zm60.42-203.98v157.51h21c17.33,0,30.64-6.17,39.94-18.51,9.3-12.33,13.94-30.67,13.94-55v-10.84c0-24.21-4.65-42.46-13.94-54.74-9.3-12.28-22.84-18.42-40.62-18.42h-20.31Z"/>
        <path class="cls-1" d="M909.58,623.76c0-8.84-3.13-15.72-9.38-20.66-6.26-4.93-17.24-10.04-32.96-15.32-15.72-5.28-28.58-10.39-38.56-15.32-32.48-15.95-48.72-37.87-48.72-65.76,0-13.89,4.05-26.14,12.14-36.75,8.09-10.61,19.54-18.88,34.34-24.79,14.8-5.91,31.44-8.86,49.92-8.86s34.17,3.21,48.46,9.64c14.29,6.43,25.39,15.58,33.31,27.46,7.92,11.88,11.88,25.45,11.88,40.71h-60.25c0-10.21-3.13-18.13-9.38-23.76-6.26-5.62-14.72-8.44-25.39-8.44s-19.31,2.38-25.56,7.14c-6.26,4.76-9.38,10.82-9.38,18.16,0,6.43,3.44,12.25,10.33,17.47,6.89,5.22,18.99,10.62,36.32,16.18,17.33,5.57,31.56,11.56,42.69,17.99,27.08,15.61,40.62,37.13,40.62,64.55,0,21.92-8.26,39.14-24.79,51.64-16.53,12.51-39.19,18.76-67.99,18.76-20.31,0-38.7-3.64-55.17-10.93-16.47-7.29-28.86-17.27-37.18-29.95-8.32-12.68-12.48-27.28-12.48-43.81h60.59c0,13.43,3.47,23.32,10.41,29.69,6.94,6.37,18.22,9.55,33.83,9.55,9.98,0,17.87-2.15,23.67-6.46,5.79-4.3,8.69-10.35,8.69-18.16Z"/>
      </g>
    </g>
  </g>
</svg>