<?xml version="1.0" encoding="UTF-8"?>
<svg id="Layer_2" data-name="Layer 2" xmlns="http://www.w3.org/2000/svg" viewBox="0 0 970 396.53">
  <defs>
    <style>
      .cls-1 {
        fill: #fff;
      }
    </style>
  </defs>
  <g id="Layer_1-2" data-name="Layer 1">
    <g>
      <path class="cls-1" d="M0,391.23V5.56H124.23c34.08,0,64.72,7.73,91.91,23.18,27.19,15.45,48.43,37.26,63.7,65.43,15.27,28.17,23,59.73,23.18,94.7v17.75c0,35.32-7.46,66.97-22.38,94.96-14.92,27.99-35.94,49.89-63.04,65.69-27.11,15.81-57.35,23.8-90.72,23.97H0ZM92.97,77.35v242.37h32.32c26.66,0,47.15-9.49,61.45-28.47,14.3-18.98,21.46-47.19,21.46-84.63v-16.69c0-37.26-7.15-65.34-21.46-84.23-14.3-18.89-35.14-28.34-62.51-28.34h-31.26Z"/>
      <path class="cls-1" d="M589.89,227.53h-146.21v92.18h172.7v71.52H350.7V5.56h266.21V77.35h-173.23v81.32h146.21v68.87Z"/>
      <path class="cls-1" d="M970,343.55c-14.3,15.89-35.23,28.7-62.78,38.41-27.55,9.71-57.74,14.57-90.59,14.57-50.51,0-90.85-15.45-121.05-46.36-30.2-30.9-46.36-73.9-48.48-129l-.26-33.38c0-37.96,6.71-71.12,20.13-99.46,13.42-28.34,32.62-50.15,57.61-65.43,24.98-15.27,53.9-22.91,86.75-22.91,48.03,0,85.33,10.99,111.91,32.98,26.57,21.99,42.07,54.79,46.49,98.4h-89.53c-3.18-21.54-10.07-36.91-20.66-46.09-10.6-9.18-25.61-13.77-45.03-13.77-23.31,0-41.32,9.89-54.04,29.67-12.72,19.78-19.16,48.03-19.34,84.76v23.31c0,38.5,6.58,67.41,19.73,86.75,13.15,19.34,33.86,29,62.11,29,24.19,0,42.2-5.38,54.04-16.16v-59.86h-64.63v-63.84h157.6v158.4Z"/>
    </g>
  </g>
</svg>